<svg version="1.2" xmlns="http://www.w3.org/2000/svg" xmlns:xlink="http://www.w3.org/1999/xlink" overflow="visible" preserveAspectRatio="none" viewBox="0 0 24 24" width="26" height="23"><g><path xmlns:default="http://www.w3.org/2000/svg" id="birthday-cake" d="M21.33,17.33c-0.3,0-0.6-0.05-0.88-0.15c-0.22-0.07-0.42-0.17-0.61-0.29c-0.13-0.09-0.3-0.22-0.49-0.39  c-0.16-0.16-0.34-0.29-0.54-0.4c-0.18-0.08-0.38-0.11-0.58-0.1c-0.2-0.01-0.4,0.03-0.59,0.11c-0.2,0.11-0.38,0.24-0.54,0.4  c-0.19,0.17-0.36,0.3-0.49,0.39c-0.19,0.12-0.39,0.22-0.61,0.29c-0.57,0.19-1.2,0.19-1.77,0c-0.22-0.07-0.42-0.17-0.61-0.29  c-0.13-0.09-0.3-0.22-0.49-0.39c-0.16-0.16-0.34-0.29-0.54-0.4c-0.19-0.08-0.39-0.12-0.59-0.11c-0.15,0-0.31,0.02-0.45,0.07  c-0.11,0.04-0.22,0.09-0.32,0.16c-0.12,0.09-0.23,0.18-0.34,0.28c-0.21,0.17-0.37,0.3-0.5,0.39c-0.19,0.12-0.39,0.21-0.6,0.28  c-0.28,0.1-0.58,0.15-0.88,0.15c-0.31,0-0.62-0.05-0.91-0.15c-0.21-0.07-0.41-0.16-0.6-0.28c-0.13-0.09-0.29-0.23-0.49-0.4  l-0.34-0.28c-0.1-0.07-0.21-0.12-0.32-0.16c-0.15-0.05-0.31-0.07-0.47-0.06c-0.2-0.01-0.4,0.03-0.59,0.11  c-0.2,0.11-0.38,0.24-0.54,0.4c-0.19,0.17-0.36,0.3-0.49,0.39c-0.19,0.12-0.39,0.22-0.61,0.29c-0.28,0.1-0.58,0.15-0.88,0.15v4  h18.66V17.33L21.33,17.33L21.33,17.33z M21.33,13.99c0-1.1-0.9-2-2-2h-0.67V7.34H16v4.66h-2.67V7.34h-2.66v4.66H8V7.34H5.34v4.66  H4.67c-1.1,0-2,0.9-2,2v2c0.2,0.01,0.4-0.03,0.59-0.11c0.2-0.11,0.38-0.24,0.54-0.4c0.2-0.17,0.36-0.31,0.49-0.4  c0.19-0.12,0.39-0.21,0.6-0.28c0.29-0.1,0.59-0.15,0.9-0.15c0.3,0,0.6,0.05,0.88,0.15c0.22,0.07,0.42,0.17,0.61,0.29  c0.13,0.09,0.3,0.22,0.49,0.39c0.16,0.16,0.34,0.29,0.54,0.4c0.19,0.08,0.39,0.12,0.59,0.11c0.15,0,0.31-0.02,0.45-0.07  c0.11-0.04,0.22-0.09,0.32-0.16c0.12-0.09,0.23-0.18,0.33-0.28c0.21-0.17,0.37-0.3,0.5-0.39c0.19-0.12,0.39-0.21,0.6-0.28  c0.29-0.1,0.59-0.15,0.9-0.15c0.31,0,0.61,0.05,0.9,0.15c0.21,0.07,0.41,0.16,0.6,0.28c0.13,0.09,0.29,0.23,0.49,0.4  c0.16,0.16,0.34,0.29,0.54,0.4c0.19,0.08,0.39,0.12,0.59,0.11c0.16,0,0.31-0.02,0.46-0.07c0.11-0.04,0.22-0.09,0.32-0.16l0.34-0.28  c0.2-0.17,0.36-0.31,0.49-0.4c0.19-0.12,0.39-0.21,0.6-0.28c0.29-0.1,0.59-0.15,0.9-0.15c0.3,0,0.6,0.05,0.88,0.15  c0.21,0.07,0.41,0.16,0.6,0.28c0.13,0.09,0.29,0.23,0.49,0.4l0.34,0.28c0.1,0.07,0.21,0.12,0.32,0.16c0.15,0.05,0.3,0.07,0.46,0.07  v-2.01l0,0H21.33z M8,4.99C7.99,4.44,7.83,3.9,7.53,3.43C7.38,3.06,7.06,2.77,6.67,2.66c0,0.24-0.03,0.47-0.1,0.7  C6.52,3.53,6.44,3.69,6.33,3.83L6,4.15L5.68,4.44c-0.1,0.1-0.19,0.22-0.24,0.35c-0.07,0.17-0.1,0.35-0.1,0.53  C5.33,6.06,5.93,6.66,6.66,6.66c0,0,0.01,0,0.01,0c0.38,0.02,0.75-0.14,1-0.43C7.93,5.88,8.04,5.43,8,4.99L8,4.99z M13.33,4.99  c-0.01-0.55-0.17-1.09-0.47-1.56C12.71,3.06,12.39,2.77,12,2.66c0,0.24-0.03,0.47-0.1,0.7c-0.05,0.17-0.13,0.32-0.24,0.46  l-0.32,0.33L11,4.44c-0.1,0.1-0.19,0.22-0.24,0.35c-0.07,0.17-0.1,0.35-0.1,0.53c-0.01,0.73,0.59,1.33,1.32,1.34  c0.01,0,0.01,0,0.02,0c0.38,0.02,0.75-0.14,1-0.43C13.26,5.88,13.37,5.43,13.33,4.99L13.33,4.99z M18.66,4.99  c-0.01-0.55-0.17-1.09-0.47-1.56c-0.15-0.38-0.47-0.67-0.86-0.77c0,0.24-0.03,0.47-0.1,0.7c-0.05,0.17-0.13,0.32-0.24,0.46  l-0.32,0.33l-0.32,0.29c-0.1,0.1-0.19,0.22-0.24,0.35c-0.07,0.17-0.1,0.35-0.1,0.53c0,0.73,0.6,1.33,1.33,1.33  c0.38,0.02,0.75-0.14,1-0.43C18.59,5.87,18.7,5.43,18.66,4.99L18.66,4.99z" style="fill: rgb(18, 18, 18);" vector-effect="non-scaling-stroke"/></g></svg>